<?xml version="1.0" standalone="no"?>
<!DOCTYPE svg PUBLIC "-//W3C//DTD SVG 20010904//EN"
 "http://www.w3.org/TR/2001/REC-SVG-20010904/DTD/svg10.dtd">
<svg version="1.0" xmlns="http://www.w3.org/2000/svg"
 width="780.000000pt" height="780.000000pt" viewBox="0 0 780.000000 780.000000"
 preserveAspectRatio="xMidYMid meet">

<g transform="translate(0.000000,780.000000) scale(0.100000,-0.100000)"
fill="#000000" stroke="none">

<path fill="#2ec50d" d="M385 6924 c-53 -13 -106 -59 -138 -119 -30 -56 -30 -164 1 -222 26
-50 85 -100 132 -113 19 -5 175 -23 345 -40 347 -35 377 -40 456 -69 56 -21
131 -77 149 -112 6 -10 46 -175 91 -366 44 -191 102 -445 130 -563 27 -118 72
-316 100 -440 28 -124 75 -331 104 -460 57 -249 128 -568 220 -995 31 -143 68
-302 82 -352 l26 -93 -52 -79 c-104 -158 -151 -328 -131 -472 14 -97 27 -143
57 -204 65 -129 178 -252 279 -303 75 -38 244 -92 287 -92 19 0 37 -3 40 -7 4
-3 -13 -29 -37 -58 -132 -154 -182 -355 -142 -568 46 -238 274 -467 512 -512
161 -31 293 -16 429 50 285 137 437 451 366 758 -25 107 -71 211 -124 277
l-36 45 791 3 c435 1 793 0 796 -2 2 -3 -14 -29 -37 -58 -86 -115 -134 -257
-135 -403 -1 -304 197 -567 487 -645 110 -30 272 -30 367 -1 174 54 364 229
437 401 27 62 28 72 28 230 0 157 -2 169 -29 240 -31 82 -70 145 -123 201
l-35 37 134 4 c148 5 190 17 247 71 109 103 92 294 -34 372 l-48 30 -1928 5
-1928 5 -27 21 c-15 11 -41 37 -58 58 -26 31 -31 47 -34 105 -5 78 9 114 67
174 74 79 -118 71 1931 78 1659 5 1841 7 1900 22 237 60 374 148 509 328 103
136 107 151 315 1124 118 554 196 958 196 1016 0 83 -16 125 -68 179 -66 68
-150 87 -240 56 -112 -40 -137 -87 -192 -361 -23 -115 -66 -327 -96 -470 -30
-143 -93 -447 -140 -675 -88 -430 -110 -516 -150 -586 -31 -56 -117 -131 -162
-144 -24 -6 -676 -10 -1902 -10 l-1865 -1 -11 48 c-33 138 -126 543 -204 893
-91 404 -243 1075 -259 1143 -5 20 -8 38 -7 39 0 1 220 5 487 8 l486 5 41 29
c53 36 79 79 94 150 22 102 -33 210 -129 257 -47 23 -51 23 -570 27 -471 4
-523 6 -527 21 -2 9 -14 61 -26 116 -44 205 -103 421 -136 498 -73 173 -208
294 -398 356 -114 38 -162 46 -416 71 -113 11 -271 28 -352 38 -119 15 -156
16 -193 6z m2773 -5335 c103 -51 149 -135 139 -256 -11 -146 -114 -252 -243
-253 -100 0 -183 46 -231 128 -25 41 -28 57 -28 132 0 73 4 92 27 137 70 132
205 178 336 112z m2571 -9 c44 -22 82 -64 114 -124 33 -64 31 -166 -6 -229
-54 -92 -175 -150 -264 -127 -123 30 -191 102 -214 223 -22 121 63 245 189
277 51 13 136 4 181 -20z"/>

<path fill="#2ec50d" d="M3770 7064 c-244 -72 -397 -217 -469 -445 -25 -78 -32 -134 -32 -264
-2 -260 99 -441 326 -591 123 -81 144 -86 330 -88 152 -1 164 0 240 28 102 36
128 49 195 100 65 49 64 47 118 113 149 180 186 352 133 613 -24 118 -60 204
-127 301 -52 76 -107 121 -224 183 -153 80 -327 98 -490 50z m283 -340 c66
-22 144 -96 178 -167 59 -126 59 -262 -1 -384 -35 -71 -82 -116 -158 -151 -47
-21 -64 -24 -136 -20 -164 9 -276 117 -307 297 -13 70 -2 170 28 251 25 69
126 167 189 183 44 11 163 6 207 -9z"/>
<path fill="#2ec50d" d="M5679 7077 c-64 -24 -94 -54 -164 -159 -38 -57 -82 -123 -99 -148
-50 -75 -466 -702 -599 -905 -69 -104 -187 -284 -262 -400 -76 -115 -272 -411
-436 -657 -164 -246 -308 -466 -320 -490 -44 -86 -31 -173 32 -220 49 -37 102
-51 160 -44 73 9 115 35 152 92 18 28 46 72 62 98 47 74 197 301 362 546 83
124 193 290 245 370 52 80 160 244 240 365 79 121 185 282 234 358 49 75 179
273 289 440 303 458 325 493 341 547 22 73 4 137 -52 183 -41 35 -127 46 -185
24z"/>
<path fill="#2ec50d" d="M5585 5470 c-278 -73 -451 -255 -510 -537 -65 -310 66 -618 331 -781
70 -44 266 -92 370 -92 173 1 425 130 521 267 96 137 130 239 132 399 3 181
-39 353 -113 464 -48 73 -175 192 -243 228 -134 71 -336 93 -488 52z m268
-346 c62 -20 139 -82 171 -136 62 -109 73 -294 24 -400 -33 -71 -103 -142
-171 -174 -79 -36 -184 -34 -253 5 -71 41 -148 129 -174 199 -19 50 -21 70
-17 162 11 208 74 304 227 350 62 18 122 16 193 -6z"/>
</g>
</svg>
